JindianCaoshuHeitiLatin-Regular.ufo
<glyph name="exclam" format="2">
  <advance width="297"/>
  <unicode hex="0021"/>
  <outline>
    <contour>
      <point x="194" y="750" type="line"/>
      <point x="106" y="750" type="line"/>
      <point x="120" y="224" type="line"/>
      <point x="175" y="224" type="line"/>
    </contour>
    <contour>
      <point x="149" y="93" type="curve"/>
      <point x="114" y="93"/>
      <point x="95" y="72"/>
      <point x="94" y="47" type="curve"/>
      <point x="94" y="23"/>
      <point x="113" y="0"/>
      <point x="149" y="0" type="curve"/>
      <point x="184" y="0"/>
      <point x="203" y="23"/>
      <point x="203" y="47" type="curve"/>
      <point x="202" y="72"/>
      <point x="184" y="93"/>
    </contour>
  </outline>
</glyph>
<glyph name="quotedbl" format="2">
  <advance width="376"/>
  <unicode hex="0022"/>
  <outline>
    <contour>
      <point x="61" y="750" type="line"/>
      <point x="72" y="484" type="line"/>
      <point x="127" y="484" type="line"/>
      <point x="138" y="750" type="line"/>
    </contour>
    <contour>
      <point x="238" y="750" type="line"/>
      <point x="249" y="484" type="line"/>
      <point x="304" y="484" type="line"/>
      <point x="315" y="750" type="line"/>
    </contour>
  </outline>
</glyph>
<glyph name="numbersign" format="2">
  <advance width="641"/>
  <unicode hex="0023"/>
  <outline>
    <contour>
      <point x="144" y="0" type="line"/>
      <point x="191" y="247" type="line"/>
      <point x="386" y="246" type="line"/>
      <point x="339" y="0" type="line"/>
      <point x="393" y="0" type="line"/>
      <point x="440" y="246" type="line"/>
      <point x="557" y="246" type="line"/>
      <point x="557" y="294" type="line"/>
      <point x="449" y="294" type="line"/>
      <point x="480" y="453" type="line"/>
      <point x="586" y="453" type="line"/>
      <point x="586" y="501" type="line"/>
      <point x="490" y="501" type="line"/>
      <point x="537" y="750" type="line"/>
      <point x="483" y="750" type="line"/>
      <point x="436" y="501" type="line"/>
      <point x="241" y="502" type="line"/>
      <point x="288" y="750" type="line"/>
      <point x="234" y="750" type="line"/>
      <point x="187" y="502" type="line"/>
      <point x="85" y="502" type="line"/>
      <point x="85" y="454" type="line"/>
      <point x="177" y="454" type="line"/>
      <point x="146" y="295" type="line"/>
      <point x="55" y="295" type="line"/>
      <point x="55" y="247" type="line"/>
      <point x="138" y="247" type="line"/>
      <point x="90" y="0" type="line"/>
    </contour>
    <contour>
      <point x="200" y="295" type="line"/>
      <point x="231" y="454" type="line"/>
      <point x="426" y="453" type="line"/>
      <point x="395" y="294" type="line"/>
    </contour>
  </outline>
</glyph>
<glyph name="dollar" format="2">
  <advance width="647"/>
  <unicode hex="0024"/>
  <outline>
    <contour>
      <point x="82" y="550" type="curve"/>
      <point x="81" y="341"/>
      <point x="506" y="370"/>
      <point x="504" y="206" type="curve"/>
      <point x="503" y="138"/>
      <point x="422" y="94"/>
      <point x="331" y="94" type="curve"/>
      <point x="224" y="94"/>
      <point x="136" y="152"/>
      <point x="136" y="237" type="curve"/>
      <point x="53" y="237" type="line"/>
      <point x="53" y="114"/>
      <point x="164" y="35"/>
      <point x="305" y="27" type="curve"/>
      <point x="298" y="-84" type="line"/>
      <point x="375" y="-84" type="line"/>
      <point x="369" y="30" type="line"/>
      <point x="492" y="43"/>
      <point x="592" y="110"/>
      <point x="592" y="215" type="curve"/>
      <point x="592" y="424"/>
      <point x="171" y="399"/>
      <point x="171" y="552" type="curve"/>
      <point x="171" y="617"/>
      <point x="249" y="655"/>
      <point x="334" y="655" type="curve"/>
      <point x="434" y="655"/>
      <point x="508" y="604"/>
      <point x="508" y="526" type="curve"/>
      <point x="591" y="526" type="line"/>
      <point x="591" y="634"/>
      <point x="501" y="708"/>
      <point x="374" y="719" type="curve"/>
      <point x="381" y="825" type="line"/>
      <point x="304" y="825" type="line"/>
      <point x="309" y="721" type="line"/>
      <point x="189" y="713"/>
      <point x="82" y="654"/>
    </contour>
  </outline>
</glyph>
<glyph name="percent" format="2">
  <advance width="793"/>
  <unicode hex="0025"/>
  <outline>
    <contour>
      <point x="639" y="750" type="line"/>
      <point x="578" y="750" type="line"/>
      <point x="122" y="0" type="line"/>
      <point x="184" y="0" type="line"/>
    </contour>
    <contour>
      <point x="66" y="574" type="curve"/>
      <point x="66" y="495"/>
      <point x="132" y="450"/>
      <point x="215" y="450" type="curve"/>
      <point x="321" y="450"/>
      <point x="399" y="530"/>
      <point x="399" y="625" type="curve"/>
      <point x="399" y="704"/>
      <point x="337" y="747"/>
      <point x="253" y="747" type="curve"/>
      <point x="147" y="747"/>
      <point x="66" y="671"/>
    </contour>
    <contour>
      <point x="221" y="504" type="curve"/>
      <point x="166" y="504"/>
      <point x="125" y="531"/>
      <point x="125" y="582" type="curve"/>
      <point x="125" y="646"/>
      <point x="179" y="694"/>
      <point x="246" y="694" type="curve"/>
      <point x="301" y="694"/>
      <point x="341" y="668"/>
      <point x="341" y="617" type="curve"/>
      <point x="341" y="553"/>
      <point x="292" y="504"/>
    </contour>
    <contour>
      <point x="394" y="128" type="curve"/>
      <point x="394" y="49"/>
      <point x="461" y="4"/>
      <point x="542" y="4" type="curve"/>
      <point x="650" y="4"/>
      <point x="727" y="84"/>
      <point x="727" y="179" type="curve"/>
      <point x="727" y="258"/>
      <point x="665" y="301"/>
      <point x="581" y="301" type="curve"/>
      <point x="475" y="301"/>
      <point x="394" y="224"/>
    </contour>
    <contour>
      <point x="549" y="57" type="curve"/>
      <point x="494" y="57"/>
      <point x="453" y="85"/>
      <point x="453" y="136" type="curve"/>
      <point x="453" y="197"/>
      <point x="507" y="248"/>
      <point x="574" y="248" type="curve"/>
      <point x="629" y="248"/>
      <point x="669" y="221"/>
      <point x="669" y="170" type="curve"/>
      <point x="669" y="109"/>
      <point x="618" y="57"/>
    </contour>
  </outline>
</glyph>
<glyph name="ampersand" format="2">
  <advance width="752"/>
  <unicode hex="0026"/>
  <outline>
    <contour>
      <point x="307" y="-15" type="curve"/>
      <point x="398" y="-15"/>
      <point x="472" y="19"/>
      <point x="531" y="68" type="curve"/>
      <point x="550" y="49"/>
      <point x="591" y="17"/>
      <point x="602" y="1" type="curve"/>
      <point x="714" y="1" type="line"/>
      <point x="693" y="24"/>
      <point x="634" y="78"/>
      <point x="590" y="122" type="curve"/>
      <point x="638" y="183"/>
      <point x="667" y="261"/>
      <point x="675" y="345" type="curve"/>
      <point x="593" y="345" type="line"/>
      <point x="586" y="289"/>
      <point x="564" y="233"/>
      <point x="528" y="186" type="curve"/>
      <point x="461" y="250"/>
      <point x="388" y="318"/>
      <point x="323" y="398" type="curve"/>
      <point x="416" y="454"/>
      <point x="515" y="514"/>
      <point x="515" y="619" type="curve"/>
      <point x="515" y="711"/>
      <point x="428" y="769"/>
      <point x="328" y="769" type="curve"/>
      <point x="216" y="769"/>
      <point x="120" y="702"/>
      <point x="120" y="598" type="curve"/>
      <point x="120" y="546"/>
      <point x="157" y="481"/>
      <point x="208" y="412" type="curve"/>
      <point x="126" y="357"/>
      <point x="50" y="293"/>
      <point x="50" y="197" type="curve"/>
      <point x="50" y="70"/>
      <point x="166" y="-15"/>
    </contour>
    <contour>
      <point x="283" y="454" type="curve"/>
      <point x="242" y="507"/>
      <point x="215" y="555"/>
      <point x="215" y="594" type="curve"/>
      <point x="215" y="651"/>
      <point x="265" y="691"/>
      <point x="330" y="691" type="curve"/>
      <point x="386" y="691"/>
      <point x="431" y="656"/>
      <point x="431" y="607" type="curve"/>
      <point x="431" y="546"/>
      <point x="357" y="499"/>
    </contour>
    <contour>
      <point x="472" y="128" type="curve"/>
      <point x="432" y="89"/>
      <point x="380" y="61"/>
      <point x="317" y="61" type="curve"/>
      <point x="216" y="61"/>
      <point x="151" y="130"/>
      <point x="154" y="209" type="curve"/>
      <point x="157" y="270"/>
      <point x="201" y="312"/>
      <point x="254" y="351" type="curve"/>
      <point x="323" y="267"/>
      <point x="403" y="196"/>
    </contour>
  </outline>
</glyph>
<glyph name="quotesingle" format="2">
  <advance width="203"/>
  <unicode hex="0027"/>
  <outline>
    <contour>
      <point x="61" y="750" type="line"/>
      <point x="72" y="516" type="line"/>
      <point x="127" y="516" type="line"/>
      <point x="142" y="750" type="line"/>
    </contour>
  </outline>
</glyph>
<glyph name="parenleft" format="2">
  <advance width="415"/>
  <unicode hex="0028"/>
  <outline>
    <contour>
      <point x="377" y="-142" type="line"/>
      <point x="190" y="-142"/>
      <point x="144" y="164"/>
      <point x="144" y="292" type="curve"/>
      <point x="144" y="420"/>
      <point x="188" y="727"/>
      <point x="377" y="727" type="curve"/>
      <point x="377" y="771" type="line"/>
      <point x="128" y="771"/>
      <point x="55" y="468"/>
      <point x="55" y="292" type="curve"/>
      <point x="55" y="119"/>
      <point x="129" y="-186"/>
      <point x="377" y="-186" type="curve"/>
    </contour>
  </outline>
</glyph>
<glyph name="asterisk" format="2">
  <advance width="515"/>
  <unicode hex="002A"/>
  <outline>
    <contour>
      <point x="136" y="325" type="line"/>
      <point x="258" y="454" type="line"/>
      <point x="377" y="318" type="line"/>
      <point x="428" y="359" type="line"/>
      <point x="297" y="478" type="line"/>
      <point x="477" y="529" type="line"/>
      <point x="456" y="586" type="line"/>
      <point x="280" y="518" type="line"/>
      <point x="294" y="694" type="line"/>
      <point x="226" y="694" type="line"/>
      <point x="236" y="519" type="line"/>
      <point x="59" y="587" type="line"/>
      <point x="37" y="531" type="line"/>
      <point x="221" y="481" type="line"/>
      <point x="89" y="367" type="line"/>
    </contour>
  </outline>
</glyph>
<glyph name="plus" format="2">
  <advance width="668"/>
  <unicode hex="002B"/>
  <outline>
    <contour>
      <point x="290" y="589" type="line"/>
      <point x="290" y="371" type="line"/>
      <point x="50" y="371" type="line"/>
      <point x="50" y="291" type="line"/>
      <point x="290" y="291" type="line"/>
      <point x="290" y="73" type="line"/>
      <point x="378" y="73" type="line"/>
      <point x="378" y="291" type="line"/>
      <point x="618" y="291" type="line"/>
      <point x="618" y="371" type="line"/>
      <point x="378" y="371" type="line"/>
      <point x="378" y="589" type="line"/>
    </contour>
  </outline>
</glyph>
<glyph name="comma" format="2">
  <advance width="270"/>
  <unicode hex="002C"/>
  <outline>
    <contour>
      <point x="134" y="-133" type="line"/>
      <point x="179" y="-90"/>
      <point x="203" y="-34"/>
      <point x="204" y="34" type="curve"/>
      <point x="204" y="53"/>
      <point x="202" y="76"/>
      <point x="201" y="97" type="curve"/>
      <point x="112" y="97" type="line"/>
      <point x="115" y="73"/>
      <point x="117" y="49"/>
      <point x="116" y="24" type="curve"/>
      <point x="114" y="-39"/>
      <point x="95" y="-95"/>
      <point x="55" y="-132" type="curve"/>
    </contour>
  </outline>
</glyph>
<glyph name="hyphenminus" format="2">
  <advance width="668"/>
  <unicode hex="002D"/>
  <outline>
    <contour>
      <point x="618" y="371" type="line"/>
      <point x="50" y="371" type="line"/>
      <point x="50" y="291" type="line"/>
      <point x="618" y="291" type="line"/>
    </contour>
  </outline>
</glyph>
<glyph name="period" format="2">
  <advance width="234"/>
  <unicode hex="002E"/>
  <outline>
    <contour>
      <point x="55" y="42" type="curve"/>
      <point x="55" y="11"/>
      <point x="78" y="-7"/>
      <point x="117" y="-7" type="curve"/>
      <point x="154" y="-7"/>
      <point x="179" y="11"/>
      <point x="179" y="42" type="curve"/>
      <point x="179" y="73"/>
      <point x="154" y="92"/>
      <point x="117" y="92" type="curve"/>
      <point x="78" y="92"/>
      <point x="55" y="73"/>
    </contour>
  </outline>
</glyph>
<glyph name="zero" format="2">
  <advance width="779"/>
  <unicode hex="0030"/>
  <outline>
    <contour>
      <point x="391" y="-14" type="curve"/>
      <point x="631" y="-14"/>
      <point x="716" y="182"/>
      <point x="716" y="377" type="curve"/>
      <point x="716" y="571"/>
      <point x="631" y="769"/>
      <point x="391" y="769" type="curve"/>
      <point x="149" y="769"/>
      <point x="65" y="572"/>
      <point x="65" y="377" type="curve"/>
      <point x="65" y="182"/>
      <point x="149" y="-14"/>
    </contour>
    <contour>
      <point x="153" y="377" type="curve"/>
      <point x="153" y="526"/>
      <point x="204" y="696"/>
      <point x="391" y="696" type="curve"/>
      <point x="577" y="696"/>
      <point x="628" y="526"/>
      <point x="628" y="377" type="curve"/>
      <point x="628" y="228"/>
      <point x="577" y="58"/>
      <point x="391" y="58" type="curve"/>
      <point x="204" y="58"/>
      <point x="153" y="228"/>
    </contour>
  </outline>
</glyph>
<glyph name="one" format="2">
  <advance width="398"/>
  <unicode hex="0031"/>
  <outline>
    <contour>
      <point x="287" y="750" type="line"/>
      <point x="67" y="672" type="line"/>
      <point x="67" y="605" type="line"/>
      <point x="233" y="659" type="line"/>
      <point x="233" y="0" type="line"/>
      <point x="321" y="0" type="line"/>
      <point x="321" y="750" type="line"/>
    </contour>
  </outline>
</glyph>
<glyph name="three" format="2">
  <advance width="675"/>
  <unicode hex="0033"/>
  <outline>
    <contour>
      <point x="140" y="552" type="line"/>
      <point x="140" y="636"/>
      <point x="242" y="689"/>
      <point x="334" y="689" type="curve"/>
      <point x="418" y="689"/>
      <point x="512" y="647"/>
      <point x="512" y="552" type="curve"/>
      <point x="512" y="464"/>
      <point x="430" y="416"/>
      <point x="342" y="416" type="curve"/>
      <point x="327" y="416"/>
      <point x="270" y="416"/>
      <point x="255" y="419" type="curve"/>
      <point x="255" y="346" type="line"/>
      <point x="270" y="346"/>
      <point x="327" y="347"/>
      <point x="342" y="347" type="curve"/>
      <point x="436" y="344"/>
      <point x="526" y="311"/>
      <point x="526" y="211" type="curve"/>
      <point x="526" y="115"/>
      <point x="432" y="64"/>
      <point x="336" y="64" type="curve"/>
      <point x="233" y="64"/>
      <point x="137" y="118"/>
      <point x="132" y="217" type="curve"/>
      <point x="44" y="217" type="line"/>
      <point x="49" y="69"/>
      <point x="187" y="-14"/>
      <point x="339" y="-14" type="curve"/>
      <point x="487" y="-14"/>
      <point x="614" y="66"/>
      <point x="614" y="211" type="curve"/>
      <point x="614" y="305"/>
      <point x="549" y="376"/>
      <point x="452" y="387" type="curve"/>
      <point x="549" y="412"/>
      <point x="595" y="479"/>
      <point x="595" y="571" type="curve"/>
      <point x="595" y="710"/>
      <point x="458" y="769"/>
      <point x="337" y="769" type="curve"/>
      <point x="191" y="769"/>
      <point x="52" y="686"/>
      <point x="52" y="552" type="curve"/>
    </contour>
  </outline>
</glyph>
<glyph name="four" format="2">
  <advance width="674"/>
  <unicode hex="0034"/>
  <outline>
    <contour>
      <point x="38" y="161" type="line"/>
      <point x="424" y="161" type="line"/>
      <point x="424" y="0" type="line"/>
      <point x="512" y="0" type="line"/>
      <point x="512" y="161" type="line"/>
      <point x="619" y="161" type="line"/>
      <point x="619" y="241" type="line"/>
      <point x="512" y="241" type="line"/>
      <point x="512" y="750" type="line"/>
      <point x="410" y="750" type="line"/>
      <point x="38" y="231" type="line"/>
    </contour>
    <contour>
      <point x="424" y="626" type="line"/>
      <point x="424" y="240" type="line"/>
      <point x="141" y="240" type="line"/>
    </contour>
  </outline>
</glyph>
<glyph name="five" format="2">
  <advance width="696"/>
  <unicode hex="0035"/>
  <outline>
    <contour>
      <point x="183" y="349" type="line"/>
      <point x="258" y="405"/>
      <point x="312" y="433"/>
      <point x="379" y="433" type="curve"/>
      <point x="605" y="433"/>
      <point x="602" y="65"/>
      <point x="340" y="65" type="curve"/>
      <point x="237" y="65"/>
      <point x="149" y="123"/>
      <point x="149" y="224" type="curve"/>
      <point x="61" y="224" type="line"/>
      <point x="61" y="76"/>
      <point x="188" y="-14"/>
      <point x="342" y="-14" type="curve"/>
      <point x="706" y="-14"/>
      <point x="730" y="503"/>
      <point x="386" y="503" type="curve"/>
      <point x="322" y="503"/>
      <point x="266" y="484"/>
      <point x="199" y="441" type="curve"/>
      <point x="226" y="672" type="line"/>
      <point x="616" y="670" type="line"/>
      <point x="616" y="750" type="line"/>
      <point x="139" y="750" type="line"/>
      <point x="98" y="371" type="line"/>
    </contour>
  </outline>
</glyph>
<glyph name="six" format="2">
  <advance width="662"/>
  <unicode hex="0036"/>
  <outline>
    <contour>
      <point x="517" y="760" type="line"/>
      <point x="204" y="768"/>
      <point x="61" y="541"/>
      <point x="56" y="281" type="curve"/>
      <point x="53" y="128"/>
      <point x="143" y="-14"/>
      <point x="331" y="-14" type="curve"/>
      <point x="501" y="-14"/>
      <point x="606" y="114"/>
      <point x="606" y="258" type="curve"/>
      <point x="606" y="379"/>
      <point x="533" y="492"/>
      <point x="378" y="492" type="curve"/>
      <point x="303" y="492"/>
      <point x="236" y="462"/>
      <point x="188" y="406" type="curve"/>
      <point x="215" y="571"/>
      <point x="319" y="691"/>
      <point x="517" y="680" type="curve"/>
    </contour>
    <contour>
      <point x="329" y="65" type="curve"/>
      <point x="214" y="65"/>
      <point x="157" y="165"/>
      <point x="161" y="256" type="curve"/>
      <point x="162" y="273"/>
      <point x="166" y="297"/>
      <point x="178" y="309" type="curve"/>
      <point x="218" y="377"/>
      <point x="283" y="412"/>
      <point x="359" y="412" type="curve"/>
      <point x="463" y="412"/>
      <point x="519" y="341"/>
      <point x="518" y="256" type="curve"/>
      <point x="516" y="157"/>
      <point x="446" y="65"/>
    </contour>
  </outline>
</glyph>
<glyph name="seven" format="2">
  <advance width="652"/>
  <unicode hex="0037"/>
  <outline>
    <contour>
      <point x="130" y="0" type="line"/>
      <point x="232" y="0" type="line"/>
      <point x="587" y="672" type="line"/>
      <point x="587" y="750" type="line"/>
      <point x="56" y="750" type="line"/>
      <point x="56" y="672" type="line"/>
      <point x="493" y="672" type="line"/>
    </contour>
  </outline>
</glyph>
<glyph name="eight" format="2">
  <advance width="687"/>
  <unicode hex="0038"/>
  <outline>
    <contour>
      <point x="623" y="211" type="curve"/>
      <point x="623" y="299"/>
      <point x="568" y="368"/>
      <point x="461" y="387" type="curve"/>
      <point x="553" y="416"/>
      <point x="604" y="483"/>
      <point x="604" y="571" type="curve"/>
      <point x="604" y="703"/>
      <point x="477" y="770"/>
      <point x="346" y="770" type="curve"/>
      <point x="214" y="770"/>
      <point x="86" y="703"/>
      <point x="86" y="571" type="curve"/>
      <point x="86" y="483"/>
      <point x="138" y="411"/>
      <point x="230" y="387" type="curve"/>
      <point x="129" y="368"/>
      <point x="64" y="304"/>
      <point x="64" y="211" type="curve"/>
      <point x="64" y="63"/>
      <point x="199" y="-15"/>
      <point x="344" y="-15" type="curve"/>
      <point x="491" y="-15"/>
      <point x="623" y="62"/>
    </contour>
    <contour>
      <point x="344" y="422" type="curve"/>
      <point x="251" y="422"/>
      <point x="177" y="464"/>
      <point x="177" y="557" type="curve"/>
      <point x="177" y="643"/>
      <point x="259" y="690"/>
      <point x="346" y="690" type="curve"/>
      <point x="432" y="690"/>
      <point x="514" y="643"/>
      <point x="514" y="557" type="curve"/>
      <point x="514" y="469"/>
      <point x="445" y="422"/>
    </contour>
    <contour>
      <point x="344" y="58" type="curve"/>
      <point x="247" y="58"/>
      <point x="156" y="110"/>
      <point x="156" y="206" type="curve"/>
      <point x="156" y="305"/>
      <point x="253" y="333"/>
      <point x="342" y="333" type="curve"/>
      <point x="457" y="333"/>
      <point x="533" y="290"/>
      <point x="533" y="206" type="curve"/>
      <point x="533" y="110"/>
      <point x="444" y="58"/>
    </contour>
  </outline>
</glyph>
<glyph name="nine" format="2">
  <advance width="677"/>
  <unicode hex="0039"/>
  <outline>
    <contour>
      <point x="158" y="-14" type="line"/>
      <point x="471" y="-14"/>
      <point x="611" y="205"/>
      <point x="611" y="464" type="curve"/>
      <point x="611" y="616"/>
      <point x="528" y="760"/>
      <point x="342" y="760" type="curve"/>
      <point x="171" y="760"/>
      <point x="61" y="630"/>
      <point x="61" y="482" type="curve"/>
      <point x="61" y="358"/>
      <point x="146" y="252"/>
      <point x="291" y="252" type="curve"/>
      <point x="370" y="252"/>
      <point x="443" y="289"/>
      <point x="480" y="341" type="curve"/>
      <point x="453" y="175"/>
      <point x="361" y="73"/>
      <point x="158" y="65" type="curve"/>
    </contour>
    <contour>
      <point x="344" y="680" type="curve"/>
      <point x="466" y="680"/>
      <point x="507" y="571"/>
      <point x="507" y="478" type="curve"/>
      <point x="483" y="398"/>
      <point x="411" y="333"/>
      <point x="313" y="333" type="curve"/>
      <point x="216" y="333"/>
      <point x="149" y="395"/>
      <point x="149" y="483" type="curve"/>
      <point x="149" y="586"/>
      <point x="225" y="680"/>
    </contour>
  </outline>
</glyph>
<glyph name="colon" format="2">
  <advance width="234"/>
  <unicode hex="003A"/>
  <outline>
    <contour>
      <point x="55" y="515" type="curve"/>
      <point x="55" y="484"/>
      <point x="80" y="465"/>
      <point x="117" y="465" type="curve"/>
      <point x="154" y="465"/>
      <point x="179" y="484"/>
      <point x="179" y="515" type="curve"/>
      <point x="179" y="546"/>
      <point x="154" y="566"/>
      <point x="117" y="566" type="curve"/>
      <point x="80" y="566"/>
      <point x="55" y="546"/>
    </contour>
    <contour>
      <point x="55" y="50" type="curve"/>
      <point x="55" y="19"/>
      <point x="80" y="0"/>
      <point x="117" y="0" type="curve"/>
      <point x="154" y="0"/>
      <point x="179" y="19"/>
      <point x="179" y="50" type="curve"/>
      <point x="179" y="81"/>
      <point x="154" y="100"/>
      <point x="117" y="100" type="curve"/>
      <point x="80" y="100"/>
      <point x="55" y="81"/>
    </contour>
  </outline>
</glyph>
<glyph name="semicolon" format="2">
  <advance width="262"/>
  <unicode hex="003B"/>
  <outline>
    <contour>
      <point x="76" y="515" type="curve"/>
      <point x="76" y="484"/>
      <point x="99" y="465"/>
      <point x="138" y="465" type="curve"/>
      <point x="175" y="465"/>
      <point x="200" y="484"/>
      <point x="200" y="515" type="curve"/>
      <point x="200" y="546"/>
      <point x="175" y="566"/>
      <point x="138" y="566" type="curve"/>
      <point x="99" y="566"/>
      <point x="76" y="546"/>
    </contour>
    <contour>
      <point x="134" y="-133" type="line"/>
      <point x="181" y="-89"/>
      <point x="202" y="-33"/>
      <point x="204" y="34" type="curve"/>
      <point x="205" y="53"/>
      <point x="202" y="76"/>
      <point x="201" y="97" type="curve"/>
      <point x="112" y="97" type="line"/>
      <point x="115" y="73"/>
      <point x="117" y="49"/>
      <point x="116" y="24" type="curve"/>
      <point x="114" y="-39"/>
      <point x="95" y="-95"/>
      <point x="55" y="-132" type="curve"/>
    </contour>
  </outline>
</glyph>
<glyph name="greater" format="2">
  <advance width="672"/>
  <unicode hex="003E"/>
  <outline>
    <contour>
      <point x="72" y="542" type="line"/>
      <point x="72" y="461" type="line"/>
      <point x="509" y="296" type="line"/>
      <point x="72" y="132" type="line"/>
      <point x="72" y="51" type="line"/>
      <point x="628" y="256" type="line"/>
      <point x="628" y="337" type="line"/>
    </contour>
  </outline>
</glyph>
<glyph name="question" format="2">
  <advance width="594"/>
  <unicode hex="003F"/>
  <outline>
    <contour>
      <point x="355" y="212" type="line"/>
      <point x="363" y="362"/>
      <point x="538" y="427"/>
      <point x="538" y="572" type="curve"/>
      <point x="538" y="695"/>
      <point x="420" y="763"/>
      <point x="298" y="763" type="curve"/>
      <point x="154" y="763"/>
      <point x="38" y="694"/>
      <point x="38" y="554" type="curve"/>
      <point x="126" y="554" type="line"/>
      <point x="129" y="639"/>
      <point x="204" y="683"/>
      <point x="291" y="683" type="curve"/>
      <point x="374" y="683"/>
      <point x="436" y="636"/>
      <point x="436" y="559" type="curve"/>
      <point x="436" y="452"/>
      <point x="274" y="367"/>
      <point x="270" y="212" type="curve"/>
    </contour>
    <contour>
      <point x="239" y="42" type="curve"/>
      <point x="239" y="9"/>
      <point x="268" y="-7"/>
      <point x="301" y="-7" type="curve"/>
      <point x="336" y="-7"/>
      <point x="364" y="9"/>
      <point x="364" y="42" type="curve"/>
      <point x="364" y="74"/>
      <point x="336" y="92"/>
      <point x="301" y="92" type="curve"/>
      <point x="268" y="92"/>
      <point x="239" y="74"/>
    </contour>
  </outline>
</glyph>
<glyph name="A" format="2">
  <advance width="627"/>
  <unicode hex="0041"/>
  <outline>
    <contour>
      <point x="355" y="750" type="line"/>
      <point x="267" y="750" type="line"/>
      <point x="12" y="0" type="line"/>
      <point x="107" y="0" type="line"/>
      <point x="170" y="192" type="line"/>
      <point x="455" y="192" type="line"/>
      <point x="521" y="0" type="line"/>
      <point x="616" y="0" type="line"/>
    </contour>
    <contour>
      <point x="311" y="614" type="line"/>
      <point x="430" y="272" type="line"/>
      <point x="197" y="272" type="line"/>
    </contour>
  </outline>
</glyph>
<glyph name="B" format="2">
  <advance width="700"/>
  <unicode hex="0042"/>
  <outline>
    <contour>
      <point x="77" y="0" type="line"/>
      <point x="402" y="0" type="line"/>
      <point x="540" y="0"/>
      <point x="637" y="87"/>
      <point x="637" y="209" type="curve"/>
      <point x="637" y="302"/>
      <point x="573" y="361"/>
      <point x="488" y="386" type="curve"/>
      <point x="563" y="415"/>
      <point x="606" y="477"/>
      <point x="606" y="557" type="curve"/>
      <point x="606" y="674"/>
      <point x="521" y="750"/>
      <point x="388" y="750" type="curve"/>
      <point x="77" y="750" type="line"/>
    </contour>
    <contour>
      <point x="518" y="550" type="curve"/>
      <point x="518" y="470"/>
      <point x="454" y="421"/>
      <point x="361" y="421" type="curve"/>
      <point x="165" y="421" type="line"/>
      <point x="165" y="670" type="line"/>
      <point x="374" y="670" type="line"/>
      <point x="466" y="670"/>
      <point x="518" y="626"/>
    </contour>
    <contour>
      <point x="549" y="216" type="curve"/>
      <point x="549" y="133"/>
      <point x="482" y="80"/>
      <point x="388" y="80" type="curve"/>
      <point x="165" y="80" type="line"/>
      <point x="165" y="341" type="line"/>
      <point x="375" y="341" type="line"/>
      <point x="466" y="341"/>
      <point x="549" y="305"/>
    </contour>
  </outline>
</glyph>
<glyph name="C" format="2">
  <advance width="775"/>
  <unicode hex="0043"/>
  <outline>
    <contour>
      <point x="398" y="767" type="curve"/>
      <point x="181" y="767"/>
      <point x="55" y="588"/>
      <point x="55" y="376" type="curve"/>
      <point x="55" y="163"/>
      <point x="181" y="-13"/>
      <point x="398" y="-13" type="curve"/>
      <point x="562" y="-13"/>
      <point x="697" y="89"/>
      <point x="724" y="242" type="curve"/>
      <point x="636" y="244" type="line"/>
      <point x="612" y="136"/>
      <point x="512" y="59"/>
      <point x="398" y="59" type="curve"/>
      <point x="236" y="59"/>
      <point x="143" y="212"/>
      <point x="143" y="377" type="curve"/>
      <point x="143" y="541"/>
      <point x="236" y="693"/>
      <point x="398" y="693" type="curve"/>
      <point x="515" y="693"/>
      <point x="622" y="610"/>
      <point x="641" y="492" type="curve"/>
      <point x="729" y="493" type="line"/>
      <point x="710" y="658"/>
      <point x="566" y="767"/>
    </contour>
  </outline>
</glyph>
<glyph name="D" format="2">
  <advance width="735"/>
  <unicode hex="0044"/>
  <outline>
    <contour>
      <point x="77" y="0" type="line"/>
      <point x="317" y="0" type="line"/>
      <point x="556" y="0"/>
      <point x="672" y="177"/>
      <point x="672" y="374" type="curve"/>
      <point x="672" y="571"/>
      <point x="556" y="750"/>
      <point x="317" y="750" type="curve"/>
      <point x="77" y="750" type="line"/>
    </contour>
    <contour>
      <point x="165" y="74" type="line"/>
      <point x="165" y="673" type="line"/>
      <point x="316" y="673" type="line"/>
      <point x="536" y="673"/>
      <point x="584" y="471"/>
      <point x="584" y="373" type="curve"/>
      <point x="584" y="275"/>
      <point x="536" y="74"/>
      <point x="316" y="74" type="curve"/>
    </contour>
  </outline>
</glyph>
<glyph name="E" format="2">
  <advance width="626"/>
  <unicode hex="0045"/>
  <outline>
    <contour>
      <point x="77" y="0" type="line"/>
      <point x="591" y="0" type="line"/>
      <point x="591" y="80" type="line"/>
      <point x="165" y="80" type="line"/>
      <point x="165" y="332" type="line"/>
      <point x="514" y="332" type="line"/>
      <point x="514" y="412" type="line"/>
      <point x="165" y="412" type="line"/>
      <point x="165" y="670" type="line"/>
      <point x="591" y="670" type="line"/>
      <point x="591" y="750" type="line"/>
      <point x="77" y="750" type="line"/>
    </contour>
  </outline>
</glyph>
<glyph name="F" format="2">
  <advance width="626"/>
  <unicode hex="0046"/>
  <outline>
    <contour>
      <point x="77" y="0" type="line"/>
      <point x="165" y="0" type="line"/>
      <point x="165" y="332" type="line"/>
      <point x="514" y="332" type="line"/>
      <point x="514" y="412" type="line"/>
      <point x="165" y="412" type="line"/>
      <point x="165" y="670" type="line"/>
      <point x="591" y="670" type="line"/>
      <point x="591" y="750" type="line"/>
      <point x="77" y="750" type="line"/>
    </contour>
  </outline>
</glyph>
<glyph name="G" format="2">
  <advance width="771"/>
  <unicode hex="0047"/>
  <outline>
    <contour>
      <point x="408" y="360" type="line"/>
      <point x="408" y="280" type="line"/>
      <point x="636" y="280" type="line"/>
      <point x="636" y="259"/>
      <point x="634" y="243"/>
      <point x="631" y="232" type="curve"/>
      <point x="620" y="132"/>
      <point x="534" y="59"/>
      <point x="417" y="59" type="curve"/>
      <point x="224" y="59"/>
      <point x="143" y="224"/>
      <point x="143" y="377" type="curve"/>
      <point x="143" y="521"/>
      <point x="216" y="692"/>
      <point x="400" y="692" type="curve"/>
      <point x="529" y="692"/>
      <point x="622" y="601"/>
      <point x="641" y="492" type="curve"/>
      <point x="729" y="493" type="line"/>
      <point x="710" y="650"/>
      <point x="574" y="767"/>
      <point x="398" y="767" type="curve"/>
      <point x="166" y="767"/>
      <point x="55" y="565"/>
      <point x="55" y="376" type="curve"/>
      <point x="55" y="176"/>
      <point x="175" y="-13"/>
      <point x="417" y="-13" type="curve"/>
      <point x="576" y="-13"/>
      <point x="693" y="71"/>
      <point x="722" y="201" type="curve"/>
      <point x="725" y="216"/>
      <point x="724" y="231"/>
      <point x="724" y="246" type="curve"/>
      <point x="724" y="360" type="line"/>
    </contour>
  </outline>
</glyph>
<glyph name="H" format="2">
  <advance width="727"/>
  <unicode hex="0048"/>
  <outline>
    <contour>
      <point x="77" y="0" type="line"/>
      <point x="165" y="0" type="line"/>
      <point x="165" y="332" type="line"/>
      <point x="562" y="332" type="line"/>
      <point x="562" y="0" type="line"/>
      <point x="650" y="0" type="line"/>
      <point x="650" y="750" type="line"/>
      <point x="562" y="750" type="line"/>
      <point x="562" y="412" type="line"/>
      <point x="165" y="412" type="line"/>
      <point x="165" y="750" type="line"/>
      <point x="77" y="750" type="line"/>
    </contour>
  </outline>
</glyph>
<glyph name="J" format="2">
  <advance width="611"/>
  <unicode hex="004A"/>
  <outline>
    <contour>
      <point x="36" y="215" type="line"/>
      <point x="36" y="79"/>
      <point x="129" y="-15"/>
      <point x="284" y="-15" type="curve"/>
      <point x="454" y="-15"/>
      <point x="534" y="97"/>
      <point x="534" y="241" type="curve"/>
      <point x="534" y="750" type="line"/>
      <point x="446" y="750" type="line"/>
      <point x="446" y="284" type="line"/>
      <point x="446" y="235"/>
      <point x="449" y="55"/>
      <point x="282" y="55" type="curve"/>
      <point x="147" y="55"/>
      <point x="124" y="172"/>
      <point x="124" y="215" type="curve"/>
    </contour>
  </outline>
</glyph>
<glyph name="K" format="2">
  <advance width="680"/>
  <unicode hex="004B"/>
  <outline>
    <contour>
      <point x="105" y="0" type="line"/>
      <point x="193" y="0" type="line"/>
      <point x="193" y="219" type="line"/>
      <point x="282" y="318" type="line"/>
      <point x="568" y="0" type="line"/>
      <point x="677" y="0" type="line"/>
      <point x="337" y="386" type="line"/>
      <point x="656" y="750" type="line"/>
      <point x="547" y="750" type="line"/>
      <point x="193" y="355" type="line"/>
      <point x="193" y="750" type="line"/>
      <point x="105" y="750" type="line"/>
    </contour>
  </outline>
</glyph>
<glyph name="L" format="2">
  <advance width="625"/>
  <unicode hex="004C"/>
  <outline>
    <contour>
      <point x="77" y="0" type="line"/>
      <point x="587" y="0" type="line"/>
      <point x="587" y="80" type="line"/>
      <point x="165" y="80" type="line"/>
      <point x="165" y="750" type="line"/>
      <point x="77" y="750" type="line"/>
    </contour>
  </outline>
</glyph>
<glyph name="M" format="2">
  <advance width="950"/>
  <unicode hex="004D"/>
  <outline>
    <contour>
      <point x="77" y="0" type="line"/>
      <point x="165" y="0" type="line"/>
      <point x="165" y="609" type="line"/>
      <point x="424" y="0" type="line"/>
      <point x="524" y="0" type="line"/>
      <point x="784" y="614" type="line"/>
      <point x="784" y="0" type="line"/>
      <point x="872" y="0" type="line"/>
      <point x="872" y="750" type="line"/>
      <point x="741" y="750" type="line"/>
      <point x="474" y="109" type="line"/>
      <point x="473" y="109" type="line"/>
      <point x="206" y="750" type="line"/>
      <point x="77" y="750" type="line"/>
    </contour>
  </outline>
</glyph>
<glyph name="N" format="2">
  <advance width="744"/>
  <unicode hex="004E"/>
  <outline>
    <contour>
      <point x="166" y="750" type="line"/>
      <point x="77" y="750" type="line"/>
      <point x="77" y="0" type="line"/>
      <point x="165" y="0" type="line"/>
      <point x="165" y="601" type="line"/>
      <point x="578" y="0" type="line"/>
      <point x="667" y="0" type="line"/>
      <point x="667" y="750" type="line"/>
      <point x="579" y="750" type="line"/>
      <point x="579" y="150" type="line"/>
    </contour>
  </outline>
</glyph>
<glyph name="O" format="2">
  <advance width="818"/>
  <unicode hex="004F"/>
  <outline>
    <contour>
      <point x="410" y="-13" type="curve"/>
      <point x="646" y="-13"/>
      <point x="764" y="181"/>
      <point x="764" y="374" type="curve"/>
      <point x="764" y="569"/>
      <point x="647" y="767"/>
      <point x="410" y="767" type="curve"/>
      <point x="173" y="767"/>
      <point x="56" y="569"/>
      <point x="56" y="375" type="curve"/>
      <point x="56" y="180"/>
      <point x="174" y="-13"/>
    </contour>
    <contour>
      <point x="144" y="374" type="curve"/>
      <point x="144" y="520"/>
      <point x="225" y="693"/>
      <point x="410" y="693" type="curve"/>
      <point x="598" y="693"/>
      <point x="676" y="520"/>
      <point x="676" y="374" type="curve"/>
      <point x="676" y="230"/>
      <point x="596" y="59"/>
      <point x="410" y="59" type="curve"/>
      <point x="226" y="59"/>
      <point x="144" y="230"/>
    </contour>
  </outline>
</glyph>
<glyph name="P" format="2">
  <advance width="722"/>
  <unicode hex="0050"/>
  <outline>
    <contour>
      <point x="77" y="0" type="line"/>
      <point x="165" y="0" type="line"/>
      <point x="165" y="274" type="line"/>
      <point x="402" y="274" type="line"/>
      <point x="752" y="274"/>
      <point x="755" y="750"/>
      <point x="409" y="750" type="curve"/>
      <point x="77" y="750" type="line"/>
    </contour>
    <contour>
      <point x="410" y="670" type="line"/>
      <point x="637" y="670"/>
      <point x="635" y="354"/>
      <point x="402" y="354" type="curve"/>
      <point x="165" y="354" type="line"/>
      <point x="165" y="670" type="line"/>
    </contour>
  </outline>
</glyph>
<glyph name="Q" format="2">
  <advance width="818"/>
  <unicode hex="0051"/>
  <outline>
    <contour>
      <point x="683" y="117" type="line"/>
      <point x="709" y="151"/>
      <point x="729" y="189"/>
      <point x="742" y="232" type="curve"/>
      <point x="757" y="279"/>
      <point x="764" y="326"/>
      <point x="764" y="374" type="curve"/>
      <point x="764" y="569"/>
      <point x="647" y="767"/>
      <point x="410" y="767" type="curve"/>
      <point x="173" y="767"/>
      <point x="56" y="569"/>
      <point x="56" y="375" type="curve"/>
      <point x="56" y="180"/>
      <point x="174" y="-13"/>
      <point x="410" y="-13" type="curve"/>
      <point x="469" y="-13"/>
      <point x="521" y="-2"/>
      <point x="565" y="20" type="curve"/>
      <point x="587" y="31"/>
      <point x="607" y="43"/>
      <point x="624" y="57" type="curve"/>
      <point x="702" y="-13" type="line"/>
      <point x="764" y="43" type="line"/>
    </contour>
    <contour>
      <point x="564" y="112" type="line"/>
      <point x="553" y="103"/>
      <point x="542" y="95"/>
      <point x="530" y="88" type="curve"/>
      <point x="497" y="69"/>
      <point x="457" y="59"/>
      <point x="410" y="59" type="curve"/>
      <point x="226" y="59"/>
      <point x="144" y="230"/>
      <point x="144" y="374" type="curve"/>
      <point x="144" y="520"/>
      <point x="225" y="693"/>
      <point x="410" y="693" type="curve"/>
      <point x="598" y="693"/>
      <point x="676" y="520"/>
      <point x="676" y="374" type="curve"/>
      <point x="676" y="338"/>
      <point x="671" y="301"/>
      <point x="661" y="264" type="curve"/>
      <point x="652" y="231"/>
      <point x="638" y="201"/>
      <point x="620" y="174" type="curve"/>
      <point x="515" y="269" type="line"/>
      <point x="453" y="212" type="line"/>
    </contour>
  </outline>
</glyph>
<glyph name="R" format="2">
  <advance width="710"/>
  <unicode hex="0052"/>
  <outline>
    <contour>
      <point x="66" y="0" type="line"/>
      <point x="154" y="0" type="line"/>
      <point x="154" y="274" type="line"/>
      <point x="225" y="274"/>
      <point x="300" y="266"/>
      <point x="380" y="277" type="curve"/>
      <point x="562" y="0" type="line"/>
      <point x="666" y="0" type="line"/>
      <point x="475" y="288" type="line"/>
      <point x="586" y="320"/>
      <point x="654" y="394"/>
      <point x="654" y="515" type="curve"/>
      <point x="654" y="653"/>
      <point x="551" y="750"/>
      <point x="398" y="750" type="curve"/>
      <point x="66" y="750" type="line"/>
    </contour>
    <contour>
      <point x="399" y="670" type="line"/>
      <point x="498" y="670"/>
      <point x="568" y="605"/>
      <point x="568" y="514" type="curve"/>
      <point x="568" y="414"/>
      <point x="500" y="366"/>
      <point x="407" y="356" type="curve"/>
      <point x="318" y="346"/>
      <point x="235" y="354"/>
      <point x="154" y="354" type="curve"/>
      <point x="154" y="670" type="line"/>
    </contour>
  </outline>
</glyph>
<glyph name="S" format="2">
  <advance width="697"/>
  <unicode hex="0053"/>
  <outline>
    <contour>
      <point x="79" y="568" type="curve"/>
      <point x="79" y="334"/>
      <point x="542" y="365"/>
      <point x="542" y="183" type="curve"/>
      <point x="542" y="106"/>
      <point x="453" y="59"/>
      <point x="355" y="59" type="curve"/>
      <point x="241" y="59"/>
      <point x="144" y="121"/>
      <point x="144" y="217" type="curve"/>
      <point x="54" y="217" type="line"/>
      <point x="51" y="76"/>
      <point x="190" y="-14"/>
      <point x="351" y="-14" type="curve"/>
      <point x="503" y="-14"/>
      <point x="638" y="65"/>
      <point x="638" y="193" type="curve"/>
      <point x="639" y="423"/>
      <point x="177" y="397"/>
      <point x="177" y="570" type="curve"/>
      <point x="177" y="646"/>
      <point x="264" y="689"/>
      <point x="358" y="689" type="curve"/>
      <point x="468" y="689"/>
      <point x="552" y="632"/>
      <point x="552" y="541" type="curve"/>
      <point x="643" y="541" type="line"/>
      <point x="638" y="678"/>
      <point x="523" y="763"/>
      <point x="359" y="763" type="curve"/>
      <point x="219" y="763"/>
      <point x="79" y="692"/>
    </contour>
  </outline>
</glyph>
<glyph name="T" format="2">
  <advance width="745"/>
  <unicode hex="0054"/>
  <outline>
    <contour>
      <point x="328" y="0" type="line"/>
      <point x="416" y="0" type="line"/>
      <point x="416" y="670" type="line"/>
      <point x="707" y="670" type="line"/>
      <point x="707" y="750" type="line"/>
      <point x="38" y="750" type="line"/>
      <point x="38" y="670" type="line"/>
      <point x="328" y="670" type="line"/>
    </contour>
  </outline>
</glyph>
<glyph name="U" format="2">
  <advance width="720"/>
  <unicode hex="0055"/>
  <outline>
    <contour>
      <point x="556" y="256" type="line"/>
      <point x="556" y="185"/>
      <point x="531" y="58"/>
      <point x="361" y="58" type="curve"/>
      <point x="193" y="58"/>
      <point x="165" y="185"/>
      <point x="165" y="254" type="curve"/>
      <point x="165" y="750" type="line"/>
      <point x="77" y="750" type="line"/>
      <point x="77" y="220" type="line"/>
      <point x="77" y="68"/>
      <point x="198" y="-15"/>
      <point x="361" y="-15" type="curve"/>
      <point x="516" y="-15"/>
      <point x="644" y="71"/>
      <point x="644" y="220" type="curve"/>
      <point x="644" y="750" type="line"/>
      <point x="556" y="750" type="line"/>
    </contour>
  </outline>
</glyph>
<glyph name="V" format="2">
  <advance width="744"/>
  <unicode hex="0056"/>
  <outline>
    <contour>
      <point x="419" y="0" type="line"/>
      <point x="711" y="750" type="line"/>
      <point x="618" y="750" type="line"/>
      <point x="373" y="116" type="line"/>
      <point x="372" y="116" type="line"/>
      <point x="127" y="750" type="line"/>
      <point x="33" y="750" type="line"/>
      <point x="324" y="0" type="line"/>
    </contour>
  </outline>
</glyph>
<glyph name="W" format="2">
  <advance width="1098"/>
  <unicode hex="0057"/>
  <outline>
    <contour>
      <point x="700" y="0" type="line"/>
      <point x="818" y="0" type="line"/>
      <point x="1070" y="750" type="line"/>
      <point x="977" y="750" type="line"/>
      <point x="767" y="108" type="line"/>
      <point x="766" y="108" type="line"/>
      <point x="602" y="755" type="line"/>
      <point x="496" y="755" type="line"/>
      <point x="347" y="110" type="line"/>
      <point x="346" y="110" type="line"/>
      <point x="120" y="750" type="line"/>
      <point x="28" y="750" type="line"/>
      <point x="296" y="0" type="line"/>
      <point x="413" y="0" type="line"/>
      <point x="549" y="564" type="line"/>
    </contour>
  </outline>
</glyph>
<glyph name="X" format="2">
  <advance width="640"/>
  <unicode hex="0058"/>
  <outline>
    <contour>
      <point x="21" y="0" type="line"/>
      <point x="123" y="0" type="line"/>
      <point x="320" y="295" type="line"/>
      <point x="517" y="0" type="line"/>
      <point x="619" y="0" type="line"/>
      <point x="372" y="375" type="line"/>
      <point x="619" y="750" type="line"/>
      <point x="517" y="750" type="line"/>
      <point x="320" y="456" type="line"/>
      <point x="123" y="750" type="line"/>
      <point x="21" y="750" type="line"/>
      <point x="270" y="375" type="line"/>
    </contour>
  </outline>
</glyph>
<glyph name="Y" format="2">
  <advance width="691"/>
  <unicode hex="0059"/>
  <outline>
    <contour>
      <point x="679" y="750" type="line"/>
      <point x="586" y="750" type="line"/>
      <point x="346" y="334" type="line"/>
      <point x="344" y="334" type="line"/>
      <point x="106" y="750" type="line"/>
      <point x="12" y="750" type="line"/>
      <point x="302" y="246" type="line"/>
      <point x="302" y="0" type="line"/>
      <point x="390" y="0" type="line"/>
      <point x="390" y="246" type="line"/>
    </contour>
  </outline>
</glyph>
<glyph name="Z" format="2">
  <advance width="709"/>
  <unicode hex="005A"/>
  <outline>
    <contour>
      <point x="51" y="58" type="line"/>
      <point x="51" y="0" type="line"/>
      <point x="665" y="0" type="line"/>
      <point x="665" y="80" type="line"/>
      <point x="175" y="80" type="line"/>
      <point x="665" y="694" type="line"/>
      <point x="665" y="750" type="line"/>
      <point x="50" y="750" type="line"/>
      <point x="50" y="670" type="line"/>
      <point x="538" y="670" type="line"/>
    </contour>
  </outline>
</glyph>
<glyph name="bracketleft" format="2">
  <advance width="319"/>
  <unicode hex="005B"/>
  <outline>
    <contour>
      <point x="77" y="-164" type="line"/>
      <point x="293" y="-164" type="line"/>
      <point x="293" y="-84" type="line"/>
      <point x="165" y="-84" type="line"/>
      <point x="165" y="770" type="line"/>
      <point x="293" y="770" type="line"/>
      <point x="293" y="850" type="line"/>
      <point x="77" y="850" type="line"/>
    </contour>
  </outline>
</glyph>
<glyph name="bracketright" format="2">
  <advance width="319"/>
  <unicode hex="005D"/>
  <outline>
    <contour>
      <point x="242" y="-164" type="line"/>
      <point x="242" y="850" type="line"/>
      <point x="26" y="850" type="line"/>
      <point x="26" y="770" type="line"/>
      <point x="154" y="770" type="line"/>
      <point x="154" y="-84" type="line"/>
      <point x="26" y="-84" type="line"/>
      <point x="26" y="-164" type="line"/>
    </contour>
  </outline>
</glyph>
<glyph name="asciicircum" format="2">
  <advance width="524"/>
  <unicode hex="005E"/>
  <outline>
    <contour>
      <point x="36" y="394" type="line"/>
      <point x="125" y="394" type="line"/>
      <point x="263" y="654" type="line"/>
      <point x="399" y="394" type="line"/>
      <point x="488" y="394" type="line"/>
      <point x="307" y="737" type="line"/>
      <point x="218" y="737" type="line"/>
    </contour>
  </outline>
</glyph>
<glyph name="underscore" format="2">
  <advance width="651"/>
  <unicode hex="005F"/>
  <outline>
    <contour>
      <point x="601" y="-42" type="line"/>
      <point x="50" y="-42" type="line"/>
      <point x="50" y="-122" type="line"/>
      <point x="601" y="-122" type="line"/>
    </contour>
  </outline>
</glyph>
<glyph name="a" format="2">
  <advance width="524"/>
  <unicode hex="0061"/>
  <outline>
    <contour>
      <point x="146" y="381" type="line"/>
      <point x="151" y="439"/>
      <point x="216" y="471"/>
      <point x="274" y="471" type="curve"/>
      <point x="349" y="471"/>
      <point x="383" y="442"/>
      <point x="392" y="378" type="curve"/>
      <point x="395" y="359"/>
      <point x="394" y="343"/>
      <point x="393" y="320" type="curve"/>
      <point x="297" y="320" type="line"/>
      <point x="151" y="320"/>
      <point x="42" y="269"/>
      <point x="42" y="146" type="curve"/>
      <point x="42" y="47"/>
      <point x="134" y="-6"/>
      <point x="233" y="-6" type="curve"/>
      <point x="300" y="-6"/>
      <point x="353" y="20"/>
      <point x="394" y="69" type="curve"/>
      <point x="394" y="0" type="line"/>
      <point x="482" y="0" type="line"/>
      <point x="482" y="362" type="line"/>
      <point x="482" y="481"/>
      <point x="401" y="541"/>
      <point x="278" y="541" type="curve"/>
      <point x="179" y="541"/>
      <point x="58" y="486"/>
      <point x="58" y="381" type="curve"/>
    </contour>
    <contour>
      <point x="394" y="143" type="line"/>
      <point x="361" y="91"/>
      <point x="298" y="61"/>
      <point x="242" y="61" type="curve"/>
      <point x="186" y="61"/>
      <point x="131" y="95"/>
      <point x="131" y="151" type="curve"/>
      <point x="131" y="227"/>
      <point x="212" y="254"/>
      <point x="315" y="254" type="curve"/>
      <point x="342" y="254"/>
      <point x="374" y="254"/>
      <point x="394" y="253" type="curve"/>
    </contour>
  </outline>
</glyph>
<glyph name="b" format="2">
  <advance width="604"/>
  <unicode hex="0062"/>
  <outline>
    <contour>
      <point x="160" y="0" type="line"/>
      <point x="160" y="65" type="line"/>
      <point x="199" y="18"/>
      <point x="252" y="-10"/>
      <point x="323" y="-10" type="curve"/>
      <point x="470" y="-10"/>
      <point x="557" y="117"/>
      <point x="557" y="278" type="curve"/>
      <point x="557" y="441"/>
      <point x="466" y="545"/>
      <point x="326" y="545" type="curve"/>
      <point x="263" y="545"/>
      <point x="199" y="517"/>
      <point x="160" y="474" type="curve"/>
      <point x="160" y="750" type="line"/>
      <point x="72" y="750" type="line"/>
      <point x="72" y="0" type="line"/>
    </contour>
    <contour>
      <point x="160" y="381" type="line"/>
      <point x="193" y="430"/>
      <point x="257" y="465"/>
      <point x="316" y="465" type="curve"/>
      <point x="414" y="465"/>
      <point x="468" y="376"/>
      <point x="471" y="272" type="curve"/>
      <point x="474" y="155"/>
      <point x="414" y="64"/>
      <point x="306" y="64" type="curve"/>
      <point x="227" y="64"/>
      <point x="179" y="114"/>
      <point x="160" y="150" type="curve"/>
    </contour>
  </outline>
</glyph>
<glyph name="c" format="2">
  <advance width="560"/>
  <unicode hex="0063"/>
  <outline>
    <contour>
      <point x="287" y="462" type="curve"/>
      <point x="358" y="462"/>
      <point x="414" y="420"/>
      <point x="427" y="340" type="curve"/>
      <point x="516" y="340" type="line"/>
      <point x="495" y="453"/>
      <point x="419" y="542"/>
      <point x="285" y="542" type="curve"/>
      <point x="121" y="542"/>
      <point x="46" y="395"/>
      <point x="46" y="263" type="curve"/>
      <point x="46" y="128"/>
      <point x="122" y="-7"/>
      <point x="289" y="-7" type="curve"/>
      <point x="415" y="-7"/>
      <point x="495" y="69"/>
      <point x="516" y="184" type="curve"/>
      <point x="427" y="184" type="line"/>
      <point x="418" y="116"/>
      <point x="365" y="71"/>
      <point x="290" y="71" type="curve"/>
      <point x="177" y="71"/>
      <point x="133" y="174"/>
      <point x="133" y="262" type="curve"/>
      <point x="133" y="346"/>
      <point x="174" y="462"/>
    </contour>
  </outline>
</glyph>
<glyph name="d" format="2">
  <advance width="600"/>
  <unicode hex="0064"/>
  <outline>
    <contour>
      <point x="440" y="0" type="line"/>
      <point x="528" y="0" type="line"/>
      <point x="528" y="750" type="line"/>
      <point x="440" y="750" type="line"/>
      <point x="440" y="488" type="line"/>
      <point x="405" y="525"/>
      <point x="347" y="545"/>
      <point x="303" y="545" type="curve"/>
      <point x="128" y="545"/>
      <point x="46" y="407"/>
      <point x="46" y="264" type="curve"/>
      <point x="46" y="123"/>
      <point x="129" y="-10"/>
      <point x="281" y="-10" type="curve"/>
      <point x="345" y="-10"/>
      <point x="408" y="17"/>
      <point x="440" y="65" type="curve"/>
    </contour>
    <contour>
      <point x="440" y="153" type="line"/>
      <point x="419" y="95"/>
      <point x="352" y="64"/>
      <point x="298" y="64" type="curve"/>
      <point x="189" y="64"/>
      <point x="133" y="159"/>
      <point x="133" y="258" type="curve"/>
      <point x="133" y="359"/>
      <point x="187" y="465"/>
      <point x="311" y="465" type="curve"/>
      <point x="352" y="465"/>
      <point x="416" y="441"/>
      <point x="440" y="393" type="curve"/>
    </contour>
  </outline>
</glyph>
<glyph name="e" format="2">
  <advance width="563"/>
  <unicode hex="0065"/>
  <outline>
    <contour>
      <point x="436" y="184" type="line"/>
      <point x="425" y="146"/>
      <point x="387" y="71"/>
      <point x="289" y="71" type="curve"/>
      <point x="178" y="71"/>
      <point x="133" y="175"/>
      <point x="138" y="275" type="curve"/>
      <point x="514" y="275" type="line"/>
      <point x="527" y="406"/>
      <point x="457" y="542"/>
      <point x="285" y="542" type="curve"/>
      <point x="126" y="542"/>
      <point x="47" y="405"/>
      <point x="47" y="266" type="curve"/>
      <point x="47" y="126"/>
      <point x="123" y="-7"/>
      <point x="290" y="-7" type="curve"/>
      <point x="391" y="-7"/>
      <point x="480" y="42"/>
      <point x="513" y="143" type="curve"/>
    </contour>
    <contour>
      <point x="148" y="330" type="line"/>
      <point x="166" y="406"/>
      <point x="212" y="472"/>
      <point x="289" y="472" type="curve"/>
      <point x="386" y="472"/>
      <point x="428" y="410"/>
      <point x="433" y="330" type="curve"/>
    </contour>
  </outline>
</glyph>
<glyph name="f" format="2">
  <advance width="404"/>
  <unicode hex="0066"/>
  <outline>
    <contour>
      <point x="389" y="750" type="line"/>
      <point x="368" y="754"/>
      <point x="348" y="756"/>
      <point x="328" y="756" type="curve"/>
      <point x="216" y="756"/>
      <point x="119" y="691"/>
      <point x="119" y="533" type="curve"/>
      <point x="119" y="526" type="line"/>
      <point x="24" y="526" type="line"/>
      <point x="24" y="446" type="line"/>
      <point x="119" y="446" type="line"/>
      <point x="119" y="0" type="line"/>
      <point x="207" y="0" type="line"/>
      <point x="207" y="446" type="line"/>
      <point x="338" y="446" type="line"/>
      <point x="338" y="526" type="line"/>
      <point x="207" y="526" type="line"/>
      <point x="207" y="547" type="line"/>
      <point x="207" y="648"/>
      <point x="271" y="680"/>
      <point x="331" y="680" type="curve"/>
      <point x="352" y="680"/>
      <point x="372" y="677"/>
      <point x="389" y="670" type="curve"/>
    </contour>
  </outline>
</glyph>
<glyph name="g" format="2">
  <advance width="602"/>
  <unicode hex="0067"/>
  <outline>
    <contour>
      <point x="530" y="526" type="line"/>
      <point x="442" y="526" type="line"/>
      <point x="442" y="445" type="line"/>
      <point x="413" y="505"/>
      <point x="353" y="542"/>
      <point x="274" y="542" type="curve"/>
      <point x="127" y="542"/>
      <point x="47" y="407"/>
      <point x="47" y="268" type="curve"/>
      <point x="47" y="128"/>
      <point x="122" y="-8"/>
      <point x="290" y="-8" type="curve"/>
      <point x="357" y="-8"/>
      <point x="411" y="15"/>
      <point x="442" y="67" type="curve"/>
      <point x="442" y="-27" type="line"/>
      <point x="442" y="-84"/>
      <point x="407" y="-159"/>
      <point x="307" y="-159" type="curve"/>
      <point x="228" y="-159"/>
      <point x="167" y="-107"/>
      <point x="164" y="-56" type="curve"/>
      <point x="76" y="-56" type="line"/>
      <point x="81" y="-159"/>
      <point x="191" y="-229"/>
      <point x="308" y="-229" type="curve"/>
      <point x="441" y="-229"/>
      <point x="530" y="-151"/>
      <point x="530" y="-31" type="curve"/>
    </contour>
    <contour>
      <point x="442" y="168" type="line"/>
      <point x="431" y="131"/>
      <point x="384" y="71"/>
      <point x="297" y="71" type="curve"/>
      <point x="178" y="71"/>
      <point x="133" y="177"/>
      <point x="133" y="274" type="curve"/>
      <point x="133" y="370"/>
      <point x="185" y="466"/>
      <point x="290" y="466" type="curve"/>
      <point x="379" y="466"/>
      <point x="434" y="396"/>
      <point x="442" y="352" type="curve"/>
    </contour>
  </outline>
</glyph>
<glyph name="h" format="2">
  <advance width="620"/>
  <unicode hex="0068"/>
  <outline>
    <contour>
      <point x="548" y="344" type="line"/>
      <point x="548" y="463"/>
      <point x="492" y="544"/>
      <point x="343" y="544" type="curve"/>
      <point x="266" y="544"/>
      <point x="201" y="515"/>
      <point x="160" y="459" type="curve"/>
      <point x="160" y="750" type="line"/>
      <point x="72" y="750" type="line"/>
      <point x="72" y="0" type="line"/>
      <point x="160" y="0" type="line"/>
      <point x="160" y="365" type="line"/>
      <point x="199" y="438"/>
      <point x="260" y="477"/>
      <point x="327" y="477" type="curve"/>
      <point x="461" y="477"/>
      <point x="460" y="375"/>
      <point x="460" y="320" type="curve"/>
      <point x="460" y="0" type="line"/>
      <point x="548" y="0" type="line"/>
    </contour>
  </outline>
</glyph>
<glyph name="i" format="2">
  <advance width="251"/>
  <unicode hex="0069"/>
  <outline>
    <contour>
      <point x="128" y="632" type="curve"/>
      <point x="161" y="632"/>
      <point x="180" y="654"/>
      <point x="181" y="678" type="curve"/>
      <point x="181" y="702"/>
      <point x="161" y="725"/>
      <point x="128" y="725" type="curve"/>
      <point x="91" y="725"/>
      <point x="74" y="702"/>
      <point x="74" y="678" type="curve"/>
      <point x="74" y="654"/>
      <point x="93" y="632"/>
    </contour>
    <contour>
      <point x="82" y="0" type="line"/>
      <point x="170" y="0" type="line"/>
      <point x="170" y="526" type="line"/>
      <point x="82" y="526" type="line"/>
    </contour>
  </outline>
</glyph>
<glyph name="j" format="2">
  <advance width="276"/>
  <unicode hex="006A"/>
  <outline>
    <contour>
      <point x="152" y="632" type="curve"/>
      <point x="185" y="632"/>
      <point x="203" y="654"/>
      <point x="203" y="678" type="curve"/>
      <point x="206" y="702"/>
      <point x="185" y="725"/>
      <point x="152" y="725" type="curve"/>
      <point x="115" y="725"/>
      <point x="97" y="702"/>
      <point x="97" y="678" type="curve"/>
      <point x="98" y="654"/>
      <point x="115" y="632"/>
    </contour>
    <contour>
      <point x="-42" y="-229" type="line"/>
      <point x="120" y="-226"/>
      <point x="198" y="-138"/>
      <point x="198" y="-5" type="curve"/>
      <point x="198" y="526" type="line"/>
      <point x="110" y="526" type="line"/>
      <point x="110" y="-7" type="line"/>
      <point x="110" y="-104"/>
      <point x="68" y="-150"/>
      <point x="-42" y="-149" type="curve"/>
    </contour>
  </outline>
</glyph>
<glyph name="k" format="2">
  <advance width="565"/>
  <unicode hex="006B"/>
  <outline>
    <contour>
      <point x="72" y="0" type="line"/>
      <point x="160" y="0" type="line"/>
      <point x="160" y="162" type="line"/>
      <point x="248" y="240" type="line"/>
      <point x="463" y="0" type="line"/>
      <point x="565" y="0" type="line"/>
      <point x="310" y="308" type="line"/>
      <point x="553" y="527" type="line"/>
      <point x="443" y="527" type="line"/>
      <point x="160" y="283" type="line"/>
      <point x="160" y="750" type="line"/>
      <point x="72" y="750" type="line"/>
    </contour>
  </outline>
</glyph>
<glyph name="m" format="2">
  <advance width="976"/>
  <unicode hex="006D"/>
  <outline>
    <contour>
      <point x="548" y="344" type="line"/>
      <point x="548" y="359"/>
      <point x="549" y="374"/>
      <point x="546" y="387" type="curve"/>
      <point x="579" y="451"/>
      <point x="626" y="477"/>
      <point x="687" y="477" type="curve"/>
      <point x="817" y="477"/>
      <point x="816" y="374"/>
      <point x="816" y="319" type="curve"/>
      <point x="816" y="0" type="line"/>
      <point x="904" y="0" type="line"/>
      <point x="904" y="344" type="line"/>
      <point x="904" y="463"/>
      <point x="850" y="544"/>
      <point x="702" y="544" type="curve"/>
      <point x="622" y="544"/>
      <point x="563" y="510"/>
      <point x="523" y="450" type="curve"/>
      <point x="496" y="510"/>
      <point x="444" y="544"/>
      <point x="343" y="544" type="curve"/>
      <point x="266" y="544"/>
      <point x="201" y="514"/>
      <point x="160" y="458" type="curve"/>
      <point x="160" y="526" type="line"/>
      <point x="72" y="526" type="line"/>
      <point x="72" y="0" type="line"/>
      <point x="160" y="0" type="line"/>
      <point x="160" y="364" type="line"/>
      <point x="199" y="440"/>
      <point x="260" y="477"/>
      <point x="327" y="477" type="curve"/>
      <point x="461" y="477"/>
      <point x="460" y="375"/>
      <point x="460" y="320" type="curve"/>
      <point x="460" y="0" type="line"/>
      <point x="548" y="0" type="line"/>
    </contour>
  </outline>
</glyph>
<glyph name="n" format="2">
  <advance width="620"/>
  <unicode hex="006E"/>
  <outline>
    <contour>
      <point x="548" y="344" type="line"/>
      <point x="548" y="467"/>
      <point x="486" y="544"/>
      <point x="343" y="544" type="curve"/>
      <point x="266" y="544"/>
      <point x="201" y="514"/>
      <point x="160" y="458" type="curve"/>
      <point x="160" y="526" type="line"/>
      <point x="72" y="526" type="line"/>
      <point x="72" y="0" type="line"/>
      <point x="160" y="0" type="line"/>
      <point x="160" y="364" type="line"/>
      <point x="199" y="440"/>
      <point x="261" y="477"/>
      <point x="326" y="477" type="curve"/>
      <point x="452" y="477"/>
      <point x="460" y="388"/>
      <point x="460" y="320" type="curve"/>
      <point x="460" y="0" type="line"/>
      <point x="548" y="0" type="line"/>
    </contour>
  </outline>
</glyph>
<glyph name="o" format="2">
  <advance width="608"/>
  <unicode hex="006F"/>
  <outline>
    <contour>
      <point x="305" y="-5" type="curve"/>
      <point x="453" y="-5"/>
      <point x="562" y="103"/>
      <point x="562" y="267" type="curve"/>
      <point x="562" y="428"/>
      <point x="453" y="543"/>
      <point x="305" y="543" type="curve"/>
      <point x="153" y="543"/>
      <point x="46" y="428"/>
      <point x="46" y="267" type="curve"/>
      <point x="46" y="103"/>
      <point x="153" y="-5"/>
    </contour>
    <contour>
      <point x="305" y="73" type="curve"/>
      <point x="197" y="73"/>
      <point x="133" y="162"/>
      <point x="133" y="267" type="curve"/>
      <point x="133" y="371"/>
      <point x="197" y="463"/>
      <point x="305" y="463" type="curve"/>
      <point x="410" y="463"/>
      <point x="475" y="371"/>
      <point x="475" y="267" type="curve"/>
      <point x="475" y="163"/>
      <point x="410" y="73"/>
    </contour>
  </outline>
</glyph>
<glyph name="p" format="2">
  <advance width="613"/>
  <unicode hex="0070"/>
  <outline>
    <contour>
      <point x="160" y="526" type="line"/>
      <point x="72" y="526" type="line"/>
      <point x="72" y="-216" type="line"/>
      <point x="160" y="-216" type="line"/>
      <point x="160" y="46" type="line"/>
      <point x="197" y="11"/>
      <point x="247" y="-11"/>
      <point x="311" y="-11" type="curve"/>
      <point x="474" y="-11"/>
      <point x="567" y="113"/>
      <point x="567" y="268" type="curve"/>
      <point x="567" y="423"/>
      <point x="482" y="542"/>
      <point x="338" y="542" type="curve"/>
      <point x="267" y="542"/>
      <point x="189" y="496"/>
      <point x="160" y="445" type="curve"/>
    </contour>
    <contour>
      <point x="160" y="348" type="line"/>
      <point x="168" y="409"/>
      <point x="257" y="467"/>
      <point x="322" y="467" type="curve"/>
      <point x="424" y="467"/>
      <point x="481" y="384"/>
      <point x="481" y="274" type="curve"/>
      <point x="481" y="163"/>
      <point x="417" y="68"/>
      <point x="302" y="68" type="curve"/>
      <point x="241" y="68"/>
      <point x="189" y="97"/>
      <point x="160" y="140" type="curve"/>
    </contour>
  </outline>
</glyph>
<glyph name="q" format="2">
  <advance width="613"/>
  <unicode hex="0071"/>
  <outline>
    <contour>
      <point x="453" y="526" type="line"/>
      <point x="453" y="445" type="line"/>
      <point x="424" y="496"/>
      <point x="363" y="541"/>
      <point x="285" y="541" type="curve"/>
      <point x="148" y="541"/>
      <point x="46" y="423"/>
      <point x="46" y="268" type="curve"/>
      <point x="46" y="113"/>
      <point x="139" y="-11"/>
      <point x="303" y="-11" type="curve"/>
      <point x="367" y="-11"/>
      <point x="417" y="11"/>
      <point x="453" y="46" type="curve"/>
      <point x="453" y="-216" type="line"/>
      <point x="541" y="-216" type="line"/>
      <point x="541" y="526" type="line"/>
    </contour>
    <contour>
      <point x="453" y="140" type="line"/>
      <point x="425" y="97"/>
      <point x="372" y="68"/>
      <point x="311" y="68" type="curve"/>
      <point x="196" y="68"/>
      <point x="133" y="163"/>
      <point x="133" y="274" type="curve"/>
      <point x="133" y="383"/>
      <point x="205" y="465"/>
      <point x="299" y="465" type="curve"/>
      <point x="371" y="465"/>
      <point x="445" y="408"/>
      <point x="453" y="348" type="curve"/>
    </contour>
  </outline>
</glyph>
<glyph name="r" format="2">
  <advance width="402"/>
  <unicode hex="0072"/>
  <outline>
    <contour>
      <point x="380" y="526" type="line"/>
      <point x="363" y="532"/>
      <point x="344" y="535"/>
      <point x="324" y="535" type="curve"/>
      <point x="263" y="535"/>
      <point x="195" y="504"/>
      <point x="160" y="436" type="curve"/>
      <point x="160" y="526" type="line"/>
      <point x="72" y="526" type="line"/>
      <point x="72" y="0" type="line"/>
      <point x="160" y="0" type="line"/>
      <point x="160" y="350" type="line"/>
      <point x="176" y="402"/>
      <point x="240" y="457"/>
      <point x="329" y="457" type="curve"/>
      <point x="346" y="457"/>
      <point x="363" y="455"/>
      <point x="380" y="451" type="curve"/>
    </contour>
  </outline>
</glyph>
<glyph name="s" format="2">
  <advance width="558"/>
  <unicode hex="0073"/>
  <outline>
    <contour>
      <point x="504" y="149" type="curve"/>
      <point x="504" y="322"/>
      <point x="148" y="279"/>
      <point x="148" y="390" type="curve"/>
      <point x="148" y="447"/>
      <point x="224" y="474"/>
      <point x="281" y="474" type="curve"/>
      <point x="345" y="474"/>
      <point x="415" y="442"/>
      <point x="418" y="378" type="curve"/>
      <point x="507" y="378" type="line"/>
      <point x="504" y="487"/>
      <point x="390" y="543"/>
      <point x="282" y="543" type="curve"/>
      <point x="182" y="543"/>
      <point x="51" y="494"/>
      <point x="51" y="388" type="curve"/>
      <point x="51" y="218"/>
      <point x="413" y="253"/>
      <point x="413" y="144" type="curve"/>
      <point x="413" y="84"/>
      <point x="326" y="60"/>
      <point x="274" y="60" type="curve"/>
      <point x="209" y="60"/>
      <point x="131" y="91"/>
      <point x="131" y="160" type="curve"/>
      <point x="42" y="160" type="line"/>
      <point x="45" y="44"/>
      <point x="152" y="-10"/>
      <point x="265" y="-10" type="curve"/>
      <point x="365" y="-10"/>
      <point x="504" y="38"/>
    </contour>
  </outline>
</glyph>
<glyph name="t" format="2">
  <advance width="401"/>
  <unicode hex="0074"/>
  <outline>
    <contour>
      <point x="360" y="72" type="line"/>
      <point x="262" y="75"/>
      <point x="219" y="82"/>
      <point x="219" y="197" type="curve"/>
      <point x="219" y="446" type="line"/>
      <point x="334" y="446" type="line"/>
      <point x="334" y="526" type="line"/>
      <point x="219" y="526" type="line"/>
      <point x="219" y="656" type="line"/>
      <point x="131" y="656" type="line"/>
      <point x="131" y="526" type="line"/>
      <point x="30" y="526" type="line"/>
      <point x="30" y="446" type="line"/>
      <point x="131" y="446" type="line"/>
      <point x="131" y="211" type="line"/>
      <point x="131" y="71"/>
      <point x="152" y="-6"/>
      <point x="360" y="-6" type="curve"/>
    </contour>
  </outline>
</glyph>
<glyph name="v" format="2">
  <advance width="545"/>
  <unicode hex="0076"/>
  <outline>
    <contour>
      <point x="222" y="0" type="line"/>
      <point x="322" y="0" type="line"/>
      <point x="525" y="526" type="line"/>
      <point x="432" y="526" type="line"/>
      <point x="273" y="109" type="line"/>
      <point x="272" y="109" type="line"/>
      <point x="114" y="526" type="line"/>
      <point x="20" y="526" type="line"/>
    </contour>
  </outline>
</glyph>
<glyph name="w" format="2">
  <advance width="848"/>
  <unicode hex="0077"/>
  <outline>
    <contour>
      <point x="247" y="109" type="line"/>
      <point x="114" y="526" type="line"/>
      <point x="20" y="526" type="line"/>
      <point x="197" y="0" type="line"/>
      <point x="297" y="0" type="line"/>
      <point x="425" y="388" type="line"/>
      <point x="555" y="0" type="line"/>
      <point x="655" y="0" type="line"/>
      <point x="829" y="526" type="line"/>
      <point x="735" y="526" type="line"/>
      <point x="605" y="109" type="line"/>
      <point x="604" y="109" type="line"/>
      <point x="471" y="526" type="line"/>
      <point x="378" y="526" type="line"/>
      <point x="248" y="109" type="line"/>
    </contour>
  </outline>
</glyph>
<glyph name="x" format="2">
  <advance width="498"/>
  <unicode hex="0078"/>
  <outline>
    <contour>
      <point x="20" y="0" type="line"/>
      <point x="114" y="0" type="line"/>
      <point x="252" y="196" type="line"/>
      <point x="388" y="0" type="line"/>
      <point x="482" y="0" type="line"/>
      <point x="299" y="264" type="line"/>
      <point x="483" y="526" type="line"/>
      <point x="390" y="526" type="line"/>
      <point x="252" y="332" type="line"/>
      <point x="116" y="526" type="line"/>
      <point x="22" y="526" type="line"/>
      <point x="206" y="264" type="line"/>
    </contour>
  </outline>
</glyph>
<glyph name="y" format="2">
  <advance width="540"/>
  <unicode hex="0079"/>
  <outline>
    <contour>
      <point x="294" y="112" type="line"/>
      <point x="136" y="526" type="line"/>
      <point x="42" y="526" type="line"/>
      <point x="246" y="1" type="line"/>
      <point x="230" y="-62"/>
      <point x="195" y="-149"/>
      <point x="57" y="-149" type="curve"/>
      <point x="57" y="-229" type="line"/>
      <point x="220" y="-226"/>
      <point x="296" y="-139"/>
      <point x="343" y="0" type="curve"/>
      <point x="521" y="526" type="line"/>
      <point x="428" y="526" type="line"/>
      <point x="295" y="112" type="line"/>
    </contour>
  </outline>
</glyph>
<glyph name="z" format="2">
  <advance width="593"/>
  <unicode hex="007A"/>
  <outline>
    <contour>
      <point x="538" y="526" type="line"/>
      <point x="73" y="526" type="line"/>
      <point x="73" y="446" type="line"/>
      <point x="405" y="446" type="line"/>
      <point x="52" y="57" type="line"/>
      <point x="52" y="0" type="line"/>
      <point x="538" y="0" type="line"/>
      <point x="538" y="80" type="line"/>
      <point x="185" y="80" type="line"/>
      <point x="538" y="470" type="line"/>
    </contour>
  </outline>
</glyph>
<glyph name="bar" format="2">
  <advance width="242"/>
  <unicode hex="007C"/>
  <outline>
    <contour>
      <point x="77" y="-120" type="line"/>
      <point x="165" y="-120" type="line"/>
      <point x="165" y="735" type="line"/>
      <point x="77" y="735" type="line"/>
    </contour>
  </outline>
</glyph>
<glyph name="exclamdown" format="2">
  <advance width="297"/>
  <unicode hex="00A1"/>
  <outline>
    <contour>
      <point x="148" y="459" type="curve"/>
      <point x="185" y="459"/>
      <point x="204" y="481"/>
      <point x="204" y="505" type="curve"/>
      <point x="204" y="529"/>
      <point x="185" y="552"/>
      <point x="148" y="552" type="curve"/>
      <point x="113" y="552"/>
      <point x="95" y="529"/>
      <point x="96" y="505" type="curve"/>
      <point x="96" y="481"/>
      <point x="113" y="459"/>
    </contour>
    <contour>
      <point x="111" y="-180" type="line"/>
      <point x="199" y="-180" type="line"/>
      <point x="181" y="344" type="line"/>
      <point x="126" y="344" type="line"/>
    </contour>
  </outline>
</glyph>
<glyph name="brokenbar" format="2">
  <advance width="276"/>
  <unicode hex="00A6"/>
  <outline>
    <contour>
      <point x="94" y="345" type="line"/>
      <point x="182" y="345" type="line"/>
      <point x="182" y="735" type="line"/>
      <point x="94" y="735" type="line"/>
    </contour>
    <contour>
      <point x="94" y="268" type="line"/>
      <point x="94" y="-120" type="line"/>
      <point x="182" y="-120" type="line"/>
      <point x="182" y="268" type="line"/>
    </contour>
  </outline>
</glyph>
<glyph name="ff" format="2">
  <advance width="743"/>
  <unicode hex="FB00"/>
  <outline>
    <contour>
      <point x="389" y="750" type="line"/>
      <point x="368" y="754"/>
      <point x="348" y="756"/>
      <point x="328" y="756" type="curve"/>
      <point x="216" y="756"/>
      <point x="119" y="691"/>
      <point x="119" y="533" type="curve"/>
      <point x="119" y="526" type="line"/>
      <point x="24" y="526" type="line"/>
      <point x="24" y="446" type="line"/>
      <point x="119" y="446" type="line"/>
      <point x="119" y="0" type="line"/>
      <point x="207" y="0" type="line"/>
      <point x="207" y="446" type="line"/>
      <point x="457" y="446" type="line"/>
      <point x="457" y="0" type="line"/>
      <point x="545" y="0" type="line"/>
      <point x="545" y="446" type="line"/>
      <point x="676" y="446" type="line"/>
      <point x="676" y="526" type="line"/>
      <point x="545" y="526" type="line"/>
      <point x="545" y="547" type="line"/>
      <point x="545" y="648"/>
      <point x="610" y="680"/>
      <point x="670" y="680" type="curve"/>
      <point x="691" y="680"/>
      <point x="711" y="677"/>
      <point x="728" y="670" type="curve"/>
      <point x="728" y="750" type="line"/>
      <point x="707" y="754"/>
      <point x="686" y="756"/>
      <point x="665" y="756" type="curve"/>
      <point x="554" y="756"/>
      <point x="457" y="691"/>
      <point x="457" y="533" type="curve"/>
      <point x="457" y="526" type="line"/>
      <point x="207" y="526" type="line"/>
      <point x="207" y="547" type="line"/>
      <point x="207" y="648"/>
      <point x="271" y="680"/>
      <point x="331" y="680" type="curve"/>
      <point x="352" y="680"/>
      <point x="372" y="677"/>
      <point x="389" y="670" type="curve"/>
    </contour>
  </outline>
</glyph>
<glyph name="fi" format="2">
  <advance width="601"/>
  <unicode hex="FB01"/>
  <outline>
    <contour>
      <point x="528" y="756" type="line"/>
      <point x="372" y="756" type="line"/>
      <point x="199" y="756"/>
      <point x="119" y="686"/>
      <point x="119" y="533" type="curve"/>
      <point x="119" y="526" type="line"/>
      <point x="24" y="526" type="line"/>
      <point x="24" y="446" type="line"/>
      <point x="119" y="446" type="line"/>
      <point x="119" y="0" type="line"/>
      <point x="207" y="0" type="line"/>
      <point x="207" y="446" type="line"/>
      <point x="338" y="446" type="line"/>
      <point x="338" y="526" type="line"/>
      <point x="207" y="526" type="line"/>
      <point x="207" y="544" type="line"/>
      <point x="207" y="657"/>
      <point x="268" y="679"/>
      <point x="347" y="679" type="curve"/>
      <point x="528" y="679" type="line"/>
    </contour>
    <contour>
      <point x="441" y="0" type="line"/>
      <point x="529" y="0" type="line"/>
      <point x="529" y="526" type="line"/>
      <point x="441" y="526" type="line"/>
    </contour>
  </outline>
</glyph>
<glyph name="fl" format="2">
  <advance width="635"/>
  <unicode hex="FB02"/>
  <outline>
    <contour>
      <point x="478" y="0" type="line"/>
      <point x="566" y="0" type="line"/>
      <point x="566" y="757" type="line"/>
      <point x="372" y="757" type="line"/>
      <point x="199" y="757"/>
      <point x="119" y="686"/>
      <point x="119" y="533" type="curve"/>
      <point x="119" y="526" type="line"/>
      <point x="24" y="526" type="line"/>
      <point x="24" y="446" type="line"/>
      <point x="119" y="446" type="line"/>
      <point x="119" y="0" type="line"/>
      <point x="207" y="0" type="line"/>
      <point x="207" y="446" type="line"/>
      <point x="338" y="446" type="line"/>
      <point x="338" y="526" type="line"/>
      <point x="207" y="526" type="line"/>
      <point x="207" y="544" type="line"/>
      <point x="207" y="656"/>
      <point x="268" y="680"/>
      <point x="347" y="680" type="curve"/>
      <point x="478" y="680" type="line"/>
    </contour>
  </outline>
</glyph>
<glyph name="ffi" format="2">
  <advance width="923"/>
  <unicode hex="FB03"/>
  <outline>
    <contour>
      <point x="441" y="446" type="line"/>
      <point x="441" y="0" type="line"/>
      <point x="529" y="0" type="line"/>
      <point x="529" y="446" type="line"/>
      <point x="660" y="446" type="line"/>
      <point x="660" y="526" type="line"/>
      <point x="529" y="526" type="line"/>
      <point x="529" y="544" type="line"/>
      <point x="529" y="657"/>
      <point x="591" y="679"/>
      <point x="670" y="679" type="curve"/>
      <point x="850" y="679" type="line"/>
      <point x="850" y="756" type="line"/>
      <point x="694" y="756" type="line"/>
      <point x="521" y="756"/>
      <point x="441" y="686"/>
      <point x="441" y="533" type="curve"/>
      <point x="441" y="526" type="line"/>
      <point x="207" y="526" type="line"/>
      <point x="207" y="547" type="line"/>
      <point x="207" y="648"/>
      <point x="271" y="680"/>
      <point x="331" y="680" type="curve"/>
      <point x="352" y="680"/>
      <point x="372" y="677"/>
      <point x="389" y="670" type="curve"/>
      <point x="389" y="750" type="line"/>
      <point x="368" y="754"/>
      <point x="348" y="756"/>
      <point x="328" y="756" type="curve"/>
      <point x="216" y="756"/>
      <point x="119" y="691"/>
      <point x="119" y="533" type="curve"/>
      <point x="119" y="526" type="line"/>
      <point x="24" y="526" type="line"/>
      <point x="24" y="446" type="line"/>
      <point x="119" y="446" type="line"/>
      <point x="119" y="0" type="line"/>
      <point x="207" y="0" type="line"/>
      <point x="207" y="446" type="line"/>
    </contour>
    <contour>
      <point x="763" y="0" type="line"/>
      <point x="851" y="0" type="line"/>
      <point x="851" y="526" type="line"/>
      <point x="763" y="526" type="line"/>
    </contour>
  </outline>
</glyph>
<glyph name="ffl" format="2">
  <advance width="968"/>
  <unicode hex="FB04"/>
  <outline>
    <contour>
      <point x="389" y="750" type="line"/>
      <point x="368" y="754"/>
      <point x="348" y="756"/>
      <point x="328" y="756" type="curve"/>
      <point x="216" y="756"/>
      <point x="119" y="691"/>
      <point x="119" y="533" type="curve"/>
      <point x="119" y="526" type="line"/>
      <point x="24" y="526" type="line"/>
      <point x="24" y="446" type="line"/>
      <point x="119" y="446" type="line"/>
      <point x="119" y="0" type="line"/>
      <point x="207" y="0" type="line"/>
      <point x="207" y="446" type="line"/>
      <point x="452" y="446" type="line"/>
      <point x="452" y="0" type="line"/>
      <point x="540" y="0" type="line"/>
      <point x="540" y="446" type="line"/>
      <point x="671" y="446" type="line"/>
      <point x="671" y="526" type="line"/>
      <point x="540" y="526" type="line"/>
      <point x="540" y="544" type="line"/>
      <point x="540" y="656"/>
      <point x="601" y="680"/>
      <point x="680" y="680" type="curve"/>
      <point x="812" y="680" type="line"/>
      <point x="811" y="0" type="line"/>
      <point x="899" y="0" type="line"/>
      <point x="899" y="757" type="line"/>
      <point x="704" y="757" type="line"/>
      <point x="531" y="757"/>
      <point x="452" y="686"/>
      <point x="452" y="533" type="curve"/>
      <point x="452" y="526" type="line"/>
      <point x="207" y="526" type="line"/>
      <point x="207" y="547" type="line"/>
      <point x="207" y="648"/>
      <point x="271" y="680"/>
      <point x="331" y="680" type="curve"/>
      <point x="352" y="680"/>
      <point x="372" y="677"/>
      <point x="389" y="670" type="curve"/>
    </contour>
  </outline>
</glyph>
